<svg width="18" height="18" viewBox="0 0 18 18" fill="none" xmlns="http://www.w3.org/2000/svg">
<g clip-path="url(#clip0_101_14105)">
<path fill-rule="evenodd" clip-rule="evenodd" d="M8.99999 0.752594C4.28303 0.752594 0.462494 4.57313 0.462494 9.29009C0.462494 13.0679 2.90635 16.2588 6.30001 17.39C6.72688 17.4648 6.88696 17.2086 6.88696 16.9845C6.88696 16.7817 6.87629 16.1094 6.87629 15.3944C4.73124 15.7893 4.17631 14.8715 4.00556 14.3913C3.90951 14.1458 3.49331 13.3881 3.13046 13.1853C2.83165 13.0253 2.40478 12.6304 3.11979 12.6197C3.79212 12.609 4.27235 13.2387 4.43243 13.4948C5.20081 14.7861 6.42807 14.4233 6.91898 14.1992C6.99368 13.6442 7.21779 13.2707 7.46324 13.0573C5.56365 12.8438 3.57868 12.1075 3.57868 8.84188C3.57868 7.91342 3.90951 7.14505 4.45378 6.54742C4.3684 6.33398 4.06959 5.45889 4.53915 4.28498C4.53915 4.28498 5.25417 4.06088 6.88696 5.16008C7.56996 4.96798 8.29565 4.87194 9.02134 4.87194C9.74703 4.87194 10.4727 4.96798 11.1557 5.16008C12.7885 4.0502 13.5035 4.28498 13.5035 4.28498C13.9731 5.45889 13.6743 6.33398 13.5889 6.54742C14.1332 7.14505 14.464 7.90275 14.464 8.84188C14.464 12.1181 12.4684 12.8438 10.5688 13.0573C10.8782 13.3241 11.145 13.8363 11.145 14.6367C11.145 15.7786 11.1344 16.6964 11.1344 16.9845C11.1344 17.2086 11.2944 17.4754 11.7213 17.39C13.4161 16.8178 14.8889 15.7286 15.9322 14.2755C16.9755 12.8225 17.537 11.0789 17.5375 9.29009C17.5375 4.57313 13.717 0.752594 8.99999 0.752594Z" fill="black"/>
</g>
<defs>
<clipPath id="clip0_101_14105">
<rect x="0.462494" y="0.752594" width="17.075" height="17.075" rx="8.5375" fill="white"/>
</clipPath>
</defs>
</svg>
