<svg width="18" height="18" viewBox="0 0 18 18" fill="none" xmlns="http://www.w3.org/2000/svg">
<g clip-path="url(#clip0_101_14097)">
<path d="M17.3711 7.61791H16.6835V7.58248H8.99985V10.9974H13.8247C13.1208 12.9853 11.2294 14.4124 8.99985 14.4124C6.17099 14.4124 3.87743 12.1188 3.87743 9.28995C3.87743 6.46109 6.17099 4.16754 8.99985 4.16754C10.3056 4.16754 11.4936 4.66014 12.3981 5.46479L14.8129 3.05C13.2882 1.62895 11.2486 0.752594 8.99985 0.752594C4.28509 0.752594 0.462494 4.57519 0.462494 9.28995C0.462494 14.0047 4.28509 17.8273 8.99985 17.8273C13.7146 17.8273 17.5372 14.0047 17.5372 9.28995C17.5372 8.71752 17.4783 8.15875 17.3711 7.61791Z" fill="#FFC107"/>
<path d="M1.44627 5.31624L4.25122 7.37331C5.01019 5.49424 6.84828 4.16753 8.99927 4.16753C10.3051 4.16753 11.493 4.66014 12.3976 5.46479L14.8124 3.05C13.2876 1.62895 11.248 0.752594 8.99927 0.752594C5.72007 0.752594 2.87628 2.60392 1.44627 5.31624Z" fill="#FF3D00"/>
<path d="M8.99998 17.8276C11.2052 17.8276 13.2089 16.9837 14.7238 15.6113L12.0815 13.3754C11.1956 14.0491 10.113 14.4135 8.99998 14.4126C6.77941 14.4126 4.89394 12.9967 4.18363 11.0208L1.3996 13.1658C2.81253 15.9306 5.68193 17.8276 8.99998 17.8276Z" fill="#4CAF50"/>
<path d="M17.3711 7.61792H16.6835V7.58249H8.99983V10.9974H13.8247C13.488 11.9435 12.8815 12.7703 12.0801 13.3755L12.0814 13.3747L14.7237 15.6106C14.5367 15.7805 17.5372 13.5586 17.5372 9.28996C17.5372 8.71753 17.4783 8.15876 17.3711 7.61792Z" fill="#1976D2"/>
</g>
<defs>
<clipPath id="clip0_101_14097">
<rect x="0.462494" y="0.752594" width="17.075" height="17.075" rx="8.5375" fill="white"/>
</clipPath>
</defs>
</svg>
