<svg width="18" height="18" viewBox="0 0 18 18" fill="none" xmlns="http://www.w3.org/2000/svg">
<g clip-path="url(#clip0_101_14122)">
<path d="M17.5375 9.34239C17.5375 4.59767 13.7148 0.751526 8.99999 0.751526C4.28302 0.752593 0.460358 4.59767 0.460358 9.34345C0.460358 13.6303 3.58295 17.1841 7.66387 17.8287V11.8257H5.49748V9.34345H7.66601V7.44919C7.66601 5.29668 8.9413 4.10783 10.891 4.10783C11.8259 4.10783 12.8024 4.27538 12.8024 4.27538V6.38841H11.7256C10.6659 6.38841 10.335 7.05113 10.335 7.73093V9.34239H12.7021L12.3243 11.8247H10.334V17.8276C14.4149 17.183 17.5375 13.6293 17.5375 9.34239Z" fill="#059BE5"/>
</g>
<defs>
<clipPath id="clip0_101_14122">
<rect x="0.462494" y="0.752594" width="17.075" height="17.075" rx="8.5375" fill="white"/>
</clipPath>
</defs>
</svg>
